<svg xmlns="http://www.w3.org/2000/svg" viewBox="29.05 34.72 149.82 254.23999999999998">
<circle cx="85.79" cy="267.91999999999996" r="0.7" fill="hsl(137.5 70% 48%)"/>
<circle cx="85.79" cy="284.23999999999995" r="0.7" fill="hsl(137.5 70% 48%)"/>
<circle cx="80.73" cy="276.0799999999999" r="0.7" fill="hsl(137.5 70% 48%)"/>
<circle cx="82.57" cy="265.19999999999993" r="0.7" fill="hsl(137.5 70% 48%)"/>
<circle cx="81.65" cy="281.52" r="0.7" fill="hsl(137.5 70% 48%)"/>
<circle cx="87.63" cy="278.79999999999995" r="0.7" fill="hsl(137.5 70% 48%)"/>
<circle cx="86.71" cy="273.35999999999996" r="0.7" fill="hsl(137.5 70% 48%)"/>
<circle cx="82.57" cy="286.9599999999999" r="0.7" fill="hsl(137.5 70% 48%)"/>
<circle cx="123.05" cy="276.0799999999999" r="0.7" fill="hsl(275.0 70% 48%)"/>
<circle cx="119.83" cy="273.35999999999996" r="0.7" fill="hsl(275.0 70% 48%)"/>
<circle cx="119.83" cy="251.59999999999997" r="0.7" fill="hsl(52.5 70% 48%)"/>
<circle cx="118.91" cy="259.75999999999993" r="0.7" fill="hsl(52.5 70% 48%)"/>
<circle cx="119.83" cy="248.87999999999994" r="0.7" fill="hsl(190.0 70% 48%)"/>
<circle cx="119.83" cy="240.71999999999997" r="0.7" fill="hsl(190.0 70% 48%)"/>
<circle cx="118.45" cy="243.43999999999994" r="0.7" fill="hsl(327.5 70% 48%)"/>
<circle cx="120.75" cy="246.15999999999997" r="0.7" fill="hsl(327.5 70% 48%)"/>
<circle cx="34.73" cy="121.03999999999996" r="0.7" fill="hsl(105.0 70% 48%)"/>
<circle cx="37.95" cy="218.95999999999995" r="0.7" fill="hsl(105.0 70% 48%)"/>
<circle cx="37.03" cy="229.83999999999995" r="0.7" fill="hsl(105.0 70% 48%)"/>
<circle cx="31.05" cy="172.71999999999994" r="0.7" fill="hsl(105.0 70% 48%)"/>
<circle cx="31.05" cy="178.15999999999994" r="0.7" fill="hsl(105.0 70% 48%)"/>
<circle cx="33.81" cy="164.55999999999995" r="0.7" fill="hsl(105.0 70% 48%)"/>
<circle cx="35.65" cy="175.43999999999994" r="0.7" fill="hsl(105.0 70% 48%)"/>
<circle cx="33.81" cy="213.51999999999995" r="0.7" fill="hsl(105.0 70% 48%)"/>
<circle cx="33.81" cy="224.39999999999995" r="0.7" fill="hsl(105.0 70% 48%)"/>
<circle cx="83.95" cy="213.51999999999995" r="0.7" fill="hsl(242.5 70% 48%)"/>
<circle cx="86.71" cy="224.39999999999995" r="0.7" fill="hsl(242.5 70% 48%)"/>
<circle cx="85.79" cy="229.83999999999995" r="0.7" fill="hsl(242.5 70% 48%)"/>
<circle cx="118.45" cy="227.11999999999995" r="0.7" fill="hsl(20.0 70% 48%)"/>
<circle cx="120.75" cy="229.83999999999995" r="0.7" fill="hsl(20.0 70% 48%)"/>
<circle cx="128.11" cy="227.11999999999995" r="0.7" fill="hsl(157.5 70% 48%)"/>
<circle cx="119.83" cy="224.39999999999995" r="0.7" fill="hsl(157.5 70% 48%)"/>
<circle cx="119.83" cy="213.51999999999995" r="0.7" fill="hsl(295.0 70% 48%)"/>
<circle cx="123.05" cy="216.23999999999995" r="0.7" fill="hsl(295.0 70% 48%)"/>
<circle cx="118.91" cy="199.91999999999996" r="0.7" fill="hsl(72.5 70% 48%)"/>
<circle cx="120.75" cy="208.07999999999996" r="0.7" fill="hsl(72.5 70% 48%)"/>
<circle cx="118.91" cy="186.31999999999994" r="0.7" fill="hsl(210.0 70% 48%)"/>
<circle cx="119.83" cy="194.47999999999996" r="0.7" fill="hsl(210.0 70% 48%)"/>
<circle cx="86.71" cy="164.55999999999995" r="0.7" fill="hsl(347.5 70% 48%)"/>
<circle cx="86.71" cy="186.31999999999994" r="0.7" fill="hsl(347.5 70% 48%)"/>
<circle cx="80.27" cy="175.43999999999994" r="0.7" fill="hsl(347.5 70% 48%)"/>
<circle cx="79.81" cy="178.15999999999994" r="0.7" fill="hsl(347.5 70% 48%)"/>
<circle cx="92.69" cy="172.71999999999994" r="0.7" fill="hsl(347.5 70% 48%)"/>
<circle cx="82.57" cy="167.27999999999994" r="0.7" fill="hsl(347.5 70% 48%)"/>
<circle cx="81.65" cy="183.59999999999994" r="0.7" fill="hsl(347.5 70% 48%)"/>
<circle cx="82.57" cy="172.71999999999994" r="0.7" fill="hsl(347.5 70% 48%)"/>
<circle cx="82.57" cy="189.03999999999996" r="0.7" fill="hsl(347.5 70% 48%)"/>
<circle cx="87.63" cy="180.87999999999994" r="0.7" fill="hsl(347.5 70% 48%)"/>
<circle cx="89.93" cy="175.43999999999994" r="0.7" fill="hsl(347.5 70% 48%)"/>
<circle cx="89.01" cy="169.99999999999994" r="0.7" fill="hsl(347.5 70% 48%)"/>
<circle cx="81.65" cy="159.11999999999995" r="0.7" fill="hsl(347.5 70% 48%)"/>
<circle cx="119.83" cy="183.59999999999994" r="0.7" fill="hsl(125.0 70% 48%)"/>
<circle cx="123.05" cy="189.03999999999996" r="0.7" fill="hsl(125.0 70% 48%)"/>
<circle cx="123.05" cy="178.15999999999994" r="0.7" fill="hsl(262.5 70% 48%)"/>
<circle cx="119.83" cy="175.43999999999994" r="0.7" fill="hsl(262.5 70% 48%)"/>
<circle cx="118.91" cy="140.07999999999996" r="0.7" fill="hsl(40.0 70% 48%)"/>
<circle cx="121.21" cy="137.35999999999996" r="0.7" fill="hsl(40.0 70% 48%)"/>
<circle cx="118.45" cy="118.31999999999994" r="0.7" fill="hsl(177.5 70% 48%)"/>
<circle cx="120.75" cy="115.59999999999994" r="0.7" fill="hsl(177.5 70% 48%)"/>
<circle cx="117.99" cy="110.15999999999994" r="0.7" fill="hsl(315.0 70% 48%)"/>
<circle cx="120.75" cy="112.87999999999994" r="0.7" fill="hsl(315.0 70% 48%)"/>
<circle cx="118.91" cy="107.43999999999994" r="0.7" fill="hsl(92.5 70% 48%)"/>
<circle cx="121.21" cy="104.71999999999994" r="0.7" fill="hsl(92.5 70% 48%)"/>
<circle cx="118.45" cy="91.11999999999995" r="0.7" fill="hsl(230.0 70% 48%)"/>
<circle cx="120.75" cy="93.83999999999995" r="0.7" fill="hsl(230.0 70% 48%)"/>
<circle cx="118.45" cy="85.67999999999995" r="0.7" fill="hsl(7.5 70% 48%)"/>
<circle cx="120.75" cy="82.95999999999995" r="0.7" fill="hsl(7.5 70% 48%)"/>
<circle cx="121.21" cy="77.51999999999995" r="0.7" fill="hsl(145.0 70% 48%)"/>
<circle cx="118.91" cy="80.23999999999995" r="0.7" fill="hsl(145.0 70% 48%)"/>
<circle cx="118.45" cy="63.91999999999996" r="0.7" fill="hsl(282.5 70% 48%)"/>
<circle cx="120.75" cy="66.63999999999993" r="0.7" fill="hsl(282.5 70% 48%)"/>
<circle cx="121.21" cy="44.87999999999994" r="0.7" fill="hsl(60.0 70% 48%)"/>
<circle cx="118.91" cy="50.319999999999936" r="0.7" fill="hsl(60.0 70% 48%)"/>
<circle cx="120.75" cy="42.15999999999997" r="0.7" fill="hsl(197.5 70% 48%)"/>
<circle cx="118.45" cy="47.599999999999966" r="0.7" fill="hsl(197.5 70% 48%)"/>
<circle cx="176.87" cy="42.15999999999997" r="0.7" fill="hsl(335.0 70% 48%)"/>
<circle cx="172.73" cy="39.43999999999994" r="0.7" fill="hsl(335.0 70% 48%)"/>
<circle cx="118.45" cy="36.71999999999997" r="0.7" fill="hsl(112.5 70% 48%)"/>
<circle cx="120.75" cy="39.43999999999994" r="0.7" fill="hsl(112.5 70% 48%)"/>
</svg>
